<svg width="256" height="256" fill="currentColor" viewBox="0 0 256 256">
  <g class="webclip">
    <rect width="256" height="256" fill="#fff" rx="128"/>
    <g fill="currentColor"" class="M_423_logo">
      <path d="M155.549 82.618c-2.692 1.288-4.388 3.16-5.091 5.618l-6.802 23.361 10.088 38.399 11.284-39.818 20.275 68.168c.819 3.043 3.394 4.564 7.724 4.564 3.276 0 6.495-.936 9.654-2.809 3.16-1.872 4.74-4.096 4.74-6.67 0-.234-.117-.819-.351-1.756l-27.297-83.44c-.702-2.457-2.457-4.33-5.266-5.617-2.808-1.404-5.968-2.106-9.479-2.106-3.511 0-6.67.702-9.479 2.106ZM48.925 173.051c-.234.936-.35 1.521-.35 1.755 0 2.692 1.52 4.974 4.563 6.846 3.16 1.756 6.437 2.633 9.83 2.633 4.33 0 6.905-1.521 7.724-4.564l6.67-23.347 4.74-17.905 15.272-53.89 15.272 53.89 4.915 17.905 6.671 23.347c.819 3.043 3.393 4.564 7.723 4.564 3.277 0 6.495-.936 9.655-2.808 3.16-1.873 4.74-4.096 4.74-6.671 0-.234-.117-.819-.351-1.755l-33.88-110.414c-.702-2.458-2.457-4.33-5.266-5.618-2.808-1.404-5.968-2.106-9.479-2.106-3.51 0-6.67.702-9.479 2.106-2.692 1.288-4.388 3.16-5.09 5.617l-33.88 110.415Z" class="AA M"/>
    </g>
  </g>
</svg>
